<svg xmlns="http://www.w3.org/2000/svg" xmlns:xlink="http://www.w3.org/1999/xlink" version="1.1" width="1000" height="1000" viewBox="0 0 1000 1000" xml:space="preserve">
<desc>Created with Fabric.js 3.5.0</desc>
<defs>
</defs>
<rect x="0" y="0" width="100%" height="100%" fill="rgba(255,255,255,0)"/>
<g transform="matrix(0.9091 0 0 0.9091 500.0045 500.0045)" id="954463">
<g style="" vector-effect="non-scaling-stroke">
		<g transform="matrix(1 0 0 1 -450 -450)">
<rect style="stroke: none; stroke-width: 1; stroke-dasharray: none; stroke-linecap: butt; stroke-dashoffset: 0; stroke-linejoin: miter; stroke-miterlimit: 4; is-custom-font: none; font-file-url: none; fill: rgb(255,255,255); fill-opacity: 0; fill-rule: nonzero; opacity: 1;" x="-50" y="-50" rx="0" ry="0" width="100" height="100"/>
</g>
		<g transform="matrix(7.2207 0 0 8.4988 -12.5024 26.7572)" id="210262">
<path style="stroke: none; stroke-width: 1; stroke-dasharray: none; stroke-linecap: butt; stroke-dashoffset: 0; stroke-linejoin: miter; stroke-miterlimit: 4; is-custom-font: none; font-file-url: none; fill: rgb(29,192,113); fill-rule: nonzero; opacity: 1;" vector-effect="non-scaling-stroke" transform=" translate(-1.05, -138.1629)" d="M 47.7 172.8 c -0.5 -2.2 -0.1 -4.7 1.2 -6.8 l 10.5 -16.7 c 2.5 -4 3.1 -9.1 2 -13.5 l -8.2 -36.1 c -0.6 -2.9 -3.5 -4.8 -6.5 -4.1 c -2.9 0.6 -4.7 3.5 -4 6.5 l 5.1 22.2 c 1.1 0.2 2.2 0.6 3.1 1.3 c 2 1.3 3.5 3.3 4 5.6 c 0.5 2.3 0.1 4.8 -1.2 6.8 l -12.1 19.2 c -0.5 0.8 -1.6 1.2 -2.5 0.5 c -0.8 -0.5 -1.2 -1.6 -0.5 -2.4 L 50.8 136 c 1.6 -2.5 0.8 -5.8 -1.7 -7.4 c -2.5 -1.6 -5.8 -0.8 -7.4 1.7 l -15.2 24.1 c -2.5 3.9 -4.4 8.5 -2.2 12.9 l 15.1 24.4 l 24.6 -0.1 L 47.7 172.8 z M -39.4 130.3 c -1.6 -2.5 -4.9 -3.3 -7.4 -1.7 c -2.5 1.6 -3.3 4.9 -1.7 7.4 l 12.2 19.3 c 0.5 0.7 0.3 1.9 -0.5 2.4 c -0.8 0.5 -1.9 0.3 -2.5 -0.5 l -12.2 -19.2 c -1.4 -2 -1.7 -4.5 -1.2 -6.8 s 2 -4.4 4 -5.6 c 1 -0.6 2 -1.1 3.1 -1.3 l 5.1 -22.2 c 0.6 -3 -1.2 -5.8 -4 -6.5 c -3 -0.6 -5.8 1.3 -6.5 4.1 l -8.3 36.1 c -1.1 4.2 -0.5 9.3 2 13.5 l 10.5 16.7 c 1.3 2.1 1.7 4.6 1.2 6.8 l -16.3 18.6 l 24.6 0.1 l 15.1 -24.4 c 2.2 -4.4 0.3 -8.8 -2.2 -12.9 L -39.4 130.3 z M 33.1 114.8 C 32 97 16.6 83.5 -1.1 84.7 c -17.8 1.1 -31.3 16.5 -30.2 34.2 c 1.1 17.8 16.5 31.3 34.2 30.2 C 20.7 148 34.1 132.7 33.1 114.8 z M -0.8 145.3 c -6.4 -0.3 -12.3 -2.9 -17.2 -7.1 c -5.7 -5 -9.1 -12 -9.6 -19.5 c -0.4 -6.8 1.3 -13.1 5.3 -18.5 c 0.2 1.4 0.8 2.4 0.8 3.5 c 0 3.8 -0.2 6.2 2.1 9.2 c 1 1.2 1.3 3 1.8 4.4 s 2.2 2 3.4 2.9 c 2.4 1.6 4.7 3.5 7.2 4.9 c 1.7 1 2.7 1.4 2.3 3.4 c -0.3 1.6 -0.3 2.5 -1.1 4 c -0.2 0.4 1.2 3.1 1.6 3.5 c 1.3 1.2 2.5 2.1 3.9 3.2 C 2.1 140.5 -0.1 142.9 -0.8 145.3 z M 7.9 144.5 c 0.6 -2 1.9 -3.8 3.2 -4.9 c 1.1 -1 2.4 -2.8 2.9 -4 c 0.5 -1.4 1.2 -2.5 1.9 -3.8 c 1.1 -1.8 -3.1 -4.1 -4.4 -4.7 c -3 -1.1 -5.2 -2.5 -7.9 -4.2 c -1.9 -1.2 -7.6 1.5 -9.7 0.6 c -2.9 -1.1 -3.8 -2 -6.4 -3.7 c -2.7 -1.7 -1.9 -5.4 -2.1 -8.2 c 1.9 0 4.7 -0.8 6.2 0.6 c 0.4 0.4 2 2.7 2.9 1.8 c 0.7 -0.7 -0.7 -3.2 -1.1 -3.8 c -1 -1.8 1.7 -2.8 2.9 -4 c 1.6 -1.8 5.2 -4.6 4.9 -5.7 c -0.3 -1.2 -4 -4.4 -6.1 -3.6 c -0.3 0.1 -2.7 2.5 -3.2 3.1 c 0 -1 -0.2 -1.4 -0.2 -2.2 c 0 -0.5 -1.2 -1.1 -1.2 -1.5 c 0.1 -1 2.5 -2.9 3.2 -3.6 c -0.4 -0.2 -2.1 -1.5 -2.5 -1.3 c -1.1 0.5 -2.3 1 -3.5 1.5 c 0 -0.4 -0.1 -0.7 -0.2 -1.2 c 2.2 -1.2 4.6 -2 7.1 -2.5 l 2.3 0.7 l 1.7 1.8 l 1.7 1.5 c 0 0 1 0.4 1.4 0.3 s 2 -2.2 2 -2.2 l -0.6 -1.5 L 3 88.3 c 4.4 0.3 8.6 1.7 12.3 4 c -0.6 0.1 -1.4 0.2 -2.1 0.4 c -0.3 -0.2 -2 0.2 -1.9 0.8 s 3.2 3.1 4.5 5.2 c 1.3 2.3 5.1 3.7 5.6 6.2 c 0.7 2.9 -0.4 6.6 0.1 10 c 0.5 3.3 4.1 6.9 4.1 6.9 s 1.6 0.4 3 0.2 c -1 5 -3.2 9.7 -6.7 13.6 C 18.3 140 13.4 143.1 7.9 144.5 z" stroke-linecap="round"/>
</g>
</g>
</g>
</svg>