<svg xmlns="http://www.w3.org/2000/svg" xmlns:xlink="http://www.w3.org/1999/xlink" version="1.1" width="1000" height="1000" viewBox="0 0 1000 1000" xml:space="preserve">
<desc>Created with Fabric.js 3.5.0</desc>
<defs>
</defs>
<rect x="0" y="0" width="100%" height="100%" fill="rgba(255,255,255,0.01)"/>
<g transform="matrix(0.9091 0 0 0.9091 500.0045 500.0045)" id="691936">
<g style="" vector-effect="non-scaling-stroke">
		<g transform="matrix(1 0 0 1 -450 -450)">
<rect style="stroke: none; stroke-width: 1; stroke-dasharray: none; stroke-linecap: butt; stroke-dashoffset: 0; stroke-linejoin: miter; stroke-miterlimit: 4; is-custom-font: none; font-file-url: none; fill: rgb(255,255,255); fill-rule: nonzero; opacity: 1;" x="-50" y="-50" rx="0" ry="0" width="100" height="100"/>
</g>
		<g transform="matrix(4.6906 0 0 3.0359 13.5525 0.0001)" id="201984">
<path style="stroke: none; stroke-width: 1; stroke-dasharray: none; stroke-linecap: butt; stroke-dashoffset: 0; stroke-linejoin: miter; stroke-miterlimit: 4; is-custom-font: none; font-file-url: none; fill: rgb(29,192,113); fill-rule: nonzero; opacity: 1;" vector-effect="non-scaling-stroke" transform=" translate(-149.722, -149.7235)" d="M 218.334 63.898 h -3.529 c 9.018 -6.374 14.924 -16.872 14.924 -28.73 C 229.729 15.776 213.953 0 194.561 0 c -19.392 0 -35.168 15.776 -35.168 35.168 c 0 11.858 5.905 22.356 14.924 28.73 h -57.556 c 9.018 -6.374 14.924 -16.872 14.924 -28.73 C 131.685 15.776 115.911 0 96.519 0 S 61.351 15.776 61.351 35.168 c 0 12.387 6.444 23.29 16.148 29.557 c -12.375 3.052 -21.582 14.24 -21.582 27.544 v 88.219 c 0 5.269 4.271 9.54 9.54 9.54 h 0.906 v 99.879 c 0 5.269 4.271 9.54 9.54 9.54 h 41.23 c 5.269 0 9.54 -4.271 9.54 -9.54 v -99.879 h 0.906 c 5.269 0 9.54 -4.271 9.54 -9.54 v -69.908 h 16.839 v 69.908 c 0 5.269 4.271 9.54 9.54 9.54 h 0.906 v 99.879 c 0 5.269 4.271 9.54 9.54 9.54 h 41.23 c 5.269 0 9.54 -4.271 9.54 -9.54 v -99.879 h 0.906 c 5.269 0 9.54 -4.271 9.54 -9.54 v -69.784 c 0 -0.068 -0.004 -0.135 -0.005 -0.202 c 4.717 -0.577 8.372 -4.589 8.372 -9.462 V 89.093 C 243.529 75.201 232.226 63.898 218.334 63.898 z M 194.561 19.08 c 8.87 0 16.088 7.216 16.088 16.088 s -7.218 16.088 -16.088 16.088 c -8.87 0 -16.088 -7.216 -16.088 -16.088 S 185.691 19.08 194.561 19.08 z M 96.519 19.08 c 8.87 0 16.088 7.216 16.088 16.088 s -7.218 16.088 -16.088 16.088 c -8.87 0 -16.088 -7.216 -16.088 -16.088 S 87.649 19.08 96.519 19.08 z M 107.594 280.366 h -22.15 v -90.339 h 22.15 V 280.366 z M 205.636 280.366 h -0.001 h -22.149 v -92.234 h 22.15 V 280.366 z M 216.083 169.099 c -0.299 -0.029 -0.6 -0.046 -0.906 -0.046 h -41.23 c -0.306 0 -0.608 0.018 -0.906 0.046 v -58.519 h 43.04 c -0.001 0.041 0.002 0.082 0.002 0.124 V 169.099 z M 224.45 91.499 h -96.869 c -5.269 0 -9.541 4.271 -9.541 9.54 v 69.908 H 74.998 V 92.269 c 0 -5.123 4.169 -9.292 9.292 -9.292 h 101.314 h 2.754 h 29.977 c 3.373 0 6.116 2.743 6.116 6.116 V 91.499 z" stroke-linecap="round"/>
</g>
</g>
</g>
</svg>