<svg xmlns="http://www.w3.org/2000/svg" xmlns:xlink="http://www.w3.org/1999/xlink" version="1.1" width="1000" height="1000" viewBox="0 0 1000 1000" xml:space="preserve">
<desc>Created with Fabric.js 3.5.0</desc>
<defs>
</defs>
<rect x="0" y="0" width="100%" height="100%" fill="rgba(255,255,255,0)"/>
<g transform="matrix(0.911 0 0 0.911 500.9545 500.9545)" id="533794">
<g style="" vector-effect="non-scaling-stroke">
		<g transform="matrix(1 0 0 1 -450 -450)">
<rect style="stroke: none; stroke-width: 1; stroke-dasharray: none; stroke-linecap: butt; stroke-dashoffset: 0; stroke-linejoin: miter; stroke-miterlimit: 4; is-custom-font: none; font-file-url: none; fill: rgb(255,255,255); fill-rule: nonzero; opacity: 1;" x="-50" y="-50" rx="0" ry="0" width="100" height="100"/>
</g>
		<g transform="matrix(45.4545 0 0 45.4545 -0.0005 -0.0008)" id="543723">
<path style="stroke: none; stroke-width: 1; stroke-dasharray: none; stroke-linecap: butt; stroke-dashoffset: 0; stroke-linejoin: miter; stroke-miterlimit: 4; is-custom-font: none; font-file-url: none; fill: rgb(29,192,113); fill-rule: evenodd; opacity: 1;" vector-effect="non-scaling-stroke" transform=" translate(-374, -1969)" d="M 378.083123 1964.99998 C 378.083123 1962.79398 376.251842 1960.99998 374 1960.99998 C 371.748158 1960.99998 369.916877 1962.79398 369.916877 1964.99998 C 369.916877 1967.20598 371.748158 1968.99998 374 1968.99998 C 376.251842 1968.99998 378.083123 1967.20598 378.083123 1964.99998 M 381.945758 1978.99998 L 380.124685 1978.99998 C 379.561214 1978.99998 379.103904 1978.55198 379.103904 1977.99998 C 379.103904 1977.44798 379.561214 1976.99998 380.124685 1976.99998 L 380.5626 1976.99998 C 381.26898 1976.99998 381.790599 1976.30298 381.523154 1975.66198 C 380.286989 1972.69798 377.383888 1970.99998 374 1970.99998 C 370.616112 1970.99998 367.713011 1972.69798 366.476846 1975.66198 C 366.209401 1976.30298 366.73102 1976.99998 367.4374 1976.99998 L 367.875315 1976.99998 C 368.438786 1976.99998 368.896096 1977.44798 368.896096 1977.99998 C 368.896096 1978.55198 368.438786 1978.99998 367.875315 1978.99998 L 366.054242 1978.99998 C 364.778266 1978.99998 363.773818 1977.85698 364.044325 1976.63598 C 364.787453 1973.27698 367.107688 1970.79798 370.163906 1969.67298 C 368.769519 1968.57398 367.875315 1966.88998 367.875315 1964.99998 C 367.875315 1961.44898 371.023403 1958.61898 374.733941 1959.04198 C 377.422678 1959.34798 379.650022 1961.44698 380.05323 1964.06998 C 380.400296 1966.33098 379.456073 1968.39598 377.836094 1969.67298 C 380.892312 1970.79798 383.212547 1973.27698 383.955675 1976.63598 C 384.226182 1977.85698 383.221734 1978.99998 381.945758 1978.99998 M 377.185857 1974.46398 C 377.584982 1974.85498 377.584982 1975.48798 377.185857 1975.87898 L 374 1978.99998 L 371.834924 1976.87898 C 371.435799 1976.48798 371.435799 1975.85498 371.834924 1975.46398 L 371.834924 1975.46398 C 372.233028 1975.07398 372.879183 1975.07398 373.278308 1975.46398 L 374 1976.17198 L 375.742473 1974.46398 C 376.141598 1974.07398 376.787752 1974.07398 377.185857 1974.46398" stroke-linecap="round"/>
</g>
</g>
</g>
</svg>