<svg xmlns="http://www.w3.org/2000/svg" xmlns:xlink="http://www.w3.org/1999/xlink" version="1.1" width="1000" height="1000" viewBox="0 0 1000 1000" xml:space="preserve">
<desc>Created with Fabric.js 3.5.0</desc>
<defs>
</defs>
<rect x="0" y="0" width="100%" height="100%" fill="rgba(255,255,255,0)"/>
<g transform="matrix(28.9413 0 0 25.9744 500.0006 500)" id="365197">
<path style="stroke: none; stroke-width: 1; stroke-dasharray: none; stroke-linecap: butt; stroke-dashoffset: 0; stroke-linejoin: miter; stroke-miterlimit: 4; is-custom-font: none; font-file-url: none; fill: rgb(29,192,113); fill-rule: nonzero; opacity: 1;" vector-effect="non-scaling-stroke" transform=" translate(-23.9995, -24.0002)" d="M 8.278 35.973 c 0 3.048 2.48 5.527 5.528 5.527 h 22.488 c 0.276 0 0.5 -0.224 0.5 -0.5 v -1.53 c 0 -0.104 -0.039 -0.195 -0.093 -0.274 c -0.006 -0.009 -0.004 -0.021 -0.01 -0.03 c -0.705 -0.92 -1.078 -2.024 -1.078 -3.193 s 0.373 -2.273 1.078 -3.194 c 0.006 -0.008 0.004 -0.02 0.01 -0.029 c 0.054 -0.08 0.093 -0.171 0.093 -0.275 v -1.03 h 2.237 c 0.276 0 0.5 -0.224 0.5 -0.5 v -1.53 c 0 -0.104 -0.039 -0.195 -0.093 -0.275 c -0.006 -0.009 -0.003 -0.021 -0.01 -0.029 c -0.705 -0.921 -1.077 -2.025 -1.077 -3.194 s 0.373 -2.273 1.077 -3.194 c 0.006 -0.008 0.004 -0.02 0.01 -0.029 c 0.054 -0.08 0.093 -0.171 0.093 -0.275 v -1.53 c 0 -0.276 -0.224 -0.5 -0.5 -0.5 h -5.227 v -4.659 l 3.947 -1.862 v 3.428 c -0.563 0.206 -0.969 0.742 -0.969 1.376 c 0 0.81 0.659 1.469 1.469 1.469 c 0.811 0 1.47 -0.659 1.47 -1.469 c 0 -0.634 -0.406 -1.17 -0.97 -1.376 V 13.08 c 0 -0.088 -0.029 -0.166 -0.068 -0.238 c -0.01 -0.019 -0.022 -0.034 -0.035 -0.051 c -0.043 -0.059 -0.095 -0.107 -0.159 -0.142 c -0.008 -0.005 -0.012 -0.015 -0.021 -0.019 L 25.854 6.55 c -0.138 -0.066 -0.297 -0.066 -0.435 0 l -12.615 6.08 c -0.173 0.083 -0.284 0.26 -0.283 0.452 c 0.001 0.193 0.112 0.368 0.287 0.45 l 4.661 2.198 v 4.659 h -0.926 c -1.48 0 -2.87 0.574 -3.912 1.616 c -1.042 1.042 -1.615 2.431 -1.615 3.912 c 0 1.894 0.958 3.567 2.415 4.564 c -1.337 0.09 -2.585 0.627 -3.536 1.579 C 8.852 33.102 8.278 34.491 8.278 35.973 z M 34.652 35.473 H 13.15 c -0.276 0 -0.5 0.224 -0.5 0.5 s 0.224 0.5 0.5 0.5 h 21.502 c 0.069 0.884 0.314 1.729 0.735 2.497 H 13.972 c -1.653 0 -2.998 -1.344 -2.998 -2.997 c 0 -0.803 0.312 -1.556 0.874 -2.119 c 0.575 -0.567 1.329 -0.879 2.124 -0.879 h 21.416 C 34.966 33.744 34.722 34.588 34.652 35.473 z M 37.39 25.417 H 15.887 c -0.276 0 -0.5 0.224 -0.5 0.5 s 0.224 0.5 0.5 0.5 H 37.39 c 0.069 0.885 0.314 1.729 0.735 2.498 H 16.709 c -1.653 0 -2.998 -1.345 -2.998 -2.998 c 0 -0.802 0.312 -1.556 0.874 -2.119 c 0.575 -0.567 1.329 -0.879 2.124 -0.879 h 21.415 C 37.703 23.688 37.459 24.533 37.39 25.417 z M 38.252 19.142 c -0.259 0 -0.469 -0.21 -0.469 -0.469 s 0.21 -0.469 0.469 -0.469 s 0.47 0.21 0.47 0.469 S 38.511 19.142 38.252 19.142 z M 14.184 13.075 l 11.454 -5.52 l 11.453 5.52 l -3.286 1.55 v -1.448 c 0 -0.065 -0.014 -0.127 -0.037 -0.185 c -0.008 -0.021 -0.022 -0.037 -0.033 -0.057 c -0.019 -0.034 -0.038 -0.068 -0.065 -0.096 c -0.017 -0.018 -0.038 -0.032 -0.057 -0.048 c -0.028 -0.022 -0.056 -0.044 -0.089 -0.06 c -0.024 -0.012 -0.05 -0.019 -0.076 -0.027 c -0.022 -0.007 -0.041 -0.019 -0.064 -0.022 l -1.819 -0.291 c -3.933 -0.632 -7.921 -0.633 -11.854 0 l -1.82 0.291 c -0.023 0.004 -0.042 0.016 -0.064 0.022 c -0.026 0.008 -0.052 0.015 -0.076 0.027 c -0.033 0.016 -0.06 0.037 -0.089 0.06 c -0.02 0.016 -0.04 0.029 -0.057 0.048 c -0.027 0.029 -0.046 0.062 -0.065 0.096 c -0.011 0.019 -0.025 0.036 -0.033 0.057 c -0.023 0.058 -0.037 0.119 -0.037 0.185 v 1.448 L 14.184 13.075 z M 18.469 15.414 v -1.81 l 1.4 -0.224 c 3.827 -0.615 7.708 -0.615 11.537 0 l 1.398 0.223 v 1.811 v 4.976 H 18.469 V 15.414 z M 12.016 25.917 c 0 -1.214 0.47 -2.353 1.322 -3.205 c 0.854 -0.853 1.992 -1.323 3.205 -1.323 h 1.426 h 15.335 h 5.227 v 0.53 H 16.709 c -1.059 0 -2.063 0.415 -2.828 1.169 c -0.754 0.755 -1.169 1.759 -1.169 2.828 c 0 2.204 1.793 3.998 3.998 3.998 h 21.822 v 0.53 h -2.237 H 16.543 C 14.046 30.445 12.016 28.414 12.016 25.917 z M 13.806 31.445 h 2.737 h 19.251 v 0.53 H 13.972 c -1.059 0 -2.062 0.415 -2.828 1.169 c -0.754 0.754 -1.169 1.758 -1.169 2.828 c 0 2.204 1.793 3.997 3.998 3.997 h 21.822 v 0.53 H 13.806 c -2.497 0 -4.528 -2.031 -4.528 -4.527 c 0 -1.214 0.47 -2.353 1.323 -3.205 C 11.454 31.915 12.592 31.445 13.806 31.445 z" stroke-linecap="round"/>
</g>
</svg>