<svg xmlns="http://www.w3.org/2000/svg" xmlns:xlink="http://www.w3.org/1999/xlink" version="1.1" width="1000" height="1000" viewBox="0 0 1000 1000" xml:space="preserve">
<desc>Created with Fabric.js 3.5.0</desc>
<defs>
</defs>
<rect x="0" y="0" width="100%" height="100%" fill="rgba(255,255,255,0)"/>
<g transform="matrix(1.1364 0 0 1.1364 500.0145 500.0145)" id="29322">
<g style="" vector-effect="non-scaling-stroke">
		<g transform="matrix(16.6667 0 0 16.6667 0.0008 0.0008)" id="invisible_box">
<rect style="stroke: none; stroke-width: 1; stroke-dasharray: none; stroke-linecap: butt; stroke-dashoffset: 0; stroke-linejoin: miter; stroke-miterlimit: 4; is-custom-font: none; font-file-url: none; fill: none; fill-rule: nonzero; opacity: 1;" x="-24" y="-24" rx="0" ry="0" width="48" height="48"/>
</g>
		<g transform="matrix(16.6667 0 0 16.6667 166.667 -233.3333)" id="icons_Q2">
<path style="stroke: none; stroke-width: 1; stroke-dasharray: none; stroke-linecap: butt; stroke-dashoffset: 0; stroke-linejoin: miter; stroke-miterlimit: 4; is-custom-font: none; font-file-url: none; fill: rgb(29,192,113); fill-rule: nonzero; opacity: 1;" transform=" translate(-34, -10)" d="M 24 10 h 0 a 2 2 0 0 1 2 -2 H 42 a 2 2 0 0 1 2 2 h 0 a 2 2 0 0 1 -2 2 H 26 A 2 2 0 0 1 24 10 Z" stroke-linecap="round"/>
</g>
		<g transform="matrix(16.6667 0 0 16.6667 166.667 0)" id="icons_Q2">
<path style="stroke: none; stroke-width: 1; stroke-dasharray: none; stroke-linecap: butt; stroke-dashoffset: 0; stroke-linejoin: miter; stroke-miterlimit: 4; is-custom-font: none; font-file-url: none; fill: rgb(29,192,113); fill-rule: nonzero; opacity: 1;" transform=" translate(-34, -24)" d="M 24 24 h 0 a 2 2 0 0 1 2 -2 H 42 a 2 2 0 0 1 2 2 h 0 a 2 2 0 0 1 -2 2 H 26 A 2 2 0 0 1 24 24 Z" stroke-linecap="round"/>
</g>
		<g transform="matrix(16.6667 0 0 16.6667 166.667 233.3334)" id="icons_Q2">
<path style="stroke: none; stroke-width: 1; stroke-dasharray: none; stroke-linecap: butt; stroke-dashoffset: 0; stroke-linejoin: miter; stroke-miterlimit: 4; is-custom-font: none; font-file-url: none; fill: rgb(29,192,113); fill-rule: nonzero; opacity: 1;" transform=" translate(-34, -38)" d="M 24 38 h 0 a 2 2 0 0 1 2 -2 H 42 a 2 2 0 0 1 2 2 h 0 a 2 2 0 0 1 -2 2 H 26 A 2 2 0 0 1 24 38 Z" stroke-linecap="round"/>
</g>
		<g transform="matrix(16.6667 0 0 16.6667 -200.2116 -249.9997)" id="icons_Q2">
<path style="stroke: none; stroke-width: 1; stroke-dasharray: none; stroke-linecap: butt; stroke-dashoffset: 0; stroke-linejoin: miter; stroke-miterlimit: 4; is-custom-font: none; font-file-url: none; fill: rgb(29,192,113); fill-rule: nonzero; opacity: 1;" transform=" translate(-11.9873, -9)" d="M 12 7.9 L 14.4 12 H 9.5 L 12 7.9 M 12 2 a 2.1 2.1 0 0 0 -1.7 1 L 4.2 13 a 2.3 2.3 0 0 0 0 2 a 1.9 1.9 0 0 0 1.7 1 H 18 a 2.1 2.1 0 0 0 1.7 -1 a 1.8 1.8 0 0 0 0 -2 l -6 -10 A 1.9 1.9 0 0 0 12 2 Z" stroke-linecap="round"/>
</g>
		<g transform="matrix(16.6667 0 0 16.6667 -199.9998 0.0002)" id="icons_Q2">
<path style="stroke: none; stroke-width: 1; stroke-dasharray: none; stroke-linecap: butt; stroke-dashoffset: 0; stroke-linejoin: miter; stroke-miterlimit: 4; is-custom-font: none; font-file-url: none; fill: rgb(29,192,113); fill-rule: nonzero; opacity: 1;" transform=" translate(-12, -24)" d="M 12 30 a 6 6 0 1 1 6 -6 A 6 6 0 0 1 12 30 Z m 0 -8 a 2 2 0 1 0 2 2 A 2 2 0 0 0 12 22 Z" stroke-linecap="round"/>
</g>
		<g transform="matrix(16.6667 0 0 16.6667 -199.9998 233.3336)" id="icons_Q2">
<path style="stroke: none; stroke-width: 1; stroke-dasharray: none; stroke-linecap: butt; stroke-dashoffset: 0; stroke-linejoin: miter; stroke-miterlimit: 4; is-custom-font: none; font-file-url: none; fill: rgb(29,192,113); fill-rule: nonzero; opacity: 1;" transform=" translate(-12, -38)" d="M 16 44 H 8 a 2 2 0 0 1 -2 -2 V 34 a 2 2 0 0 1 2 -2 h 8 a 2 2 0 0 1 2 2 v 8 A 2 2 0 0 1 16 44 Z m -6 -4 h 4 V 36 H 10 Z" stroke-linecap="round"/>
</g>
</g>
</g>
</svg>