<svg xmlns="http://www.w3.org/2000/svg" xmlns:xlink="http://www.w3.org/1999/xlink" version="1.1" width="1000" height="1000" viewBox="0 0 1000 1000" xml:space="preserve">
<desc>Created with Fabric.js 3.5.0</desc>
<defs>
</defs>
<rect x="0" y="0" width="100%" height="100%" fill="rgba(255,255,255,0)"/>
<g transform="matrix(1.1375 0 0 1.1375 500.4545 500.4545)" id="191415">
<g style="" vector-effect="non-scaling-stroke">
		<g transform="matrix(33.3333 0 0 33.3333 -0.0005 -0.0005)">
<rect style="stroke: none; stroke-width: 1; stroke-dasharray: none; stroke-linecap: butt; stroke-dashoffset: 0; stroke-linejoin: miter; stroke-miterlimit: 4; is-custom-font: none; font-file-url: none; fill: rgb(255,255,255); fill-rule: nonzero; opacity: 1;" x="-12" y="-12" rx="0" ry="0" width="24" height="24"/>
</g>
		<g transform="matrix(33.3333 0 0 33.3333 -0.0003 -0.0003)">
<path style="stroke: none; stroke-width: 1; stroke-dasharray: none; stroke-linecap: butt; stroke-dashoffset: 0; stroke-linejoin: miter; stroke-miterlimit: 4; is-custom-font: none; font-file-url: none; fill: rgb(29,192,113); fill-rule: evenodd; opacity: 1;" transform=" translate(-12, -12)" d="M 7 12 C 7 11.4477 7.44772 11 8 11 H 8.01 C 8.56228 11 9.01 11.4477 9.01 12 C 9.01 12.5523 8.56228 13 8.01 13 H 8 C 7.44772 13 7 12.5523 7 12 Z M 11 12 C 11 11.4477 11.4477 11 12 11 H 12.01 C 12.5623 11 13.01 11.4477 13.01 12 C 13.01 12.5523 12.5623 13 12.01 13 H 12 C 11.4477 13 11 12.5523 11 12 Z M 16 11 C 15.4477 11 15 11.4477 15 12 C 15 12.5523 15.4477 13 16 13 H 16.01 C 16.5623 13 17.01 12.5523 17.01 12 C 17.01 11.4477 16.5623 11 16.01 11 H 16 Z M 2 12 C 2 6.47715 6.47715 2 12 2 C 17.5228 2 22 6.47715 22 12 C 22 17.5228 17.5228 22 12 22 C 6.47715 22 2 17.5228 2 12 Z" stroke-linecap="round"/>
</g>
</g>
</g>
</svg>