<svg xmlns="http://www.w3.org/2000/svg" xmlns:xlink="http://www.w3.org/1999/xlink" version="1.1" width="1000" height="1000" viewBox="0 0 1000 1000" xml:space="preserve">
<desc>Created with Fabric.js 3.5.0</desc>
<defs>
</defs>
<rect x="0" y="0" width="100%" height="100%" fill="rgba(255,255,255,0)"/>
<g transform="matrix(1.1364 0 0 1.1364 500.0145 500.0145)" id="215761">
<g style="" vector-effect="non-scaling-stroke">
		<g transform="matrix(0.7813 0 0 0.7813 0.6786 -108.4379)">
<path style="stroke: none; stroke-width: 1; stroke-dasharray: none; stroke-linecap: butt; stroke-dashoffset: 0; stroke-linejoin: miter; stroke-miterlimit: 4; is-custom-font: none; font-file-url: none; fill: rgb(29,192,113); fill-rule: nonzero; opacity: 1;" transform=" translate(-512.8365, -373.1795)" d="M 99.012 149.446 C -19.347 266.882 -19.347 457.345 99.011 574.78 L 203.89 678.973 c 8.024 7.972 20.991 7.929 28.963 -0.095 s 7.929 -20.991 -0.095 -28.963 L 127.87 545.713 c -102.22 -101.423 -102.22 -265.776 -0.009 -367.19 c 102.31 -101.502 268.242 -101.502 370.552 0.001 c 7.985 7.922 20.864 7.922 28.849 -0.001 c 102.3 -101.502 268.241 -101.502 370.541 0 c 102.221 101.414 102.221 265.767 0.001 367.18 l -49.043 48.745 c -8.022 7.974 -8.062 20.941 -0.088 28.963 s 20.941 8.062 28.963 0.088 l 49.029 -48.732 c 118.356 -117.422 118.356 -307.886 -0.013 -425.322 C 813.078 36.757 631.788 32.283 512.837 136.024 C 393.878 32.283 212.597 36.757 99.013 149.445 z" stroke-linecap="round"/>
</g>
		<g transform="matrix(0.7813 0 0 0.7813 173.2243 -58.0723)">
<path style="stroke: none; stroke-width: 1; stroke-dasharray: none; stroke-linecap: butt; stroke-dashoffset: 0; stroke-linejoin: miter; stroke-miterlimit: 4; is-custom-font: none; font-file-url: none; fill: rgb(29,192,113); fill-rule: nonzero; opacity: 1;" transform=" translate(-733.7164, -437.654)" d="M 572.466 263.522 L 848.68 539.736 c 15.104 15.104 15.104 39.607 -0.003 54.721 c -15.11 15.11 -39.608 15.11 -54.712 0 L 692.821 493.313 c -7.998 -7.998 -20.965 -7.998 -28.963 0 s -7.998 20.965 0 28.963 l 101.14 101.14 c 31.096 31.11 81.534 31.11 112.644 0 c 31.099 -31.113 31.099 -81.546 0 -112.644 L 601.428 234.558 c -7.998 -7.998 -20.965 -7.998 -28.963 0 s -7.998 20.965 0 28.963 z" stroke-linecap="round"/>
</g>
		<g transform="matrix(0.7813 0 0 0.7813 130.596 29.4954)">
<path style="stroke: none; stroke-width: 1; stroke-dasharray: none; stroke-linecap: butt; stroke-dashoffset: 0; stroke-linejoin: miter; stroke-miterlimit: 4; is-custom-font: none; font-file-url: none; fill: rgb(29,192,113); fill-rule: nonzero; opacity: 1;" transform=" translate(-679.154, -549.7425)" d="M 547.175 404.886 l 217.661 217.661 c 15.113 15.113 15.113 39.612 0.003 54.715 c -15.117 15.117 -39.608 15.117 -54.721 0.003 l -101.13 -101.13 c -7.998 -7.998 -20.965 -7.998 -28.963 0 s -7.998 20.965 0 28.963 l 101.13 101.13 c 31.11 31.11 81.535 31.11 112.644 0 c 31.11 -31.096 31.11 -81.534 0 -112.644 L 576.138 375.923 c -7.998 -7.998 -20.965 -7.998 -28.963 0 s -7.998 20.965 0 28.963 z" stroke-linecap="round"/>
</g>
		<g transform="matrix(0.7813 0 0 0.7813 0.9441 -28.4151)">
<path style="stroke: none; stroke-width: 1; stroke-dasharray: none; stroke-linecap: butt; stroke-dashoffset: 0; stroke-linejoin: miter; stroke-miterlimit: 4; is-custom-font: none; font-file-url: none; fill: rgb(29,192,113); fill-rule: nonzero; opacity: 1;" transform=" translate(-513.1943, -475.607)" d="M 464.975 490.364 l 216.023 216.023 c 15.113 15.113 15.113 39.612 0.003 54.715 c -15.117 15.117 -39.608 15.117 -54.721 0.003 L 371.673 506.498 c -7.998 -7.998 -20.965 -7.998 -28.963 0 s -7.998 20.965 0 28.963 l 254.607 254.607 c 31.11 31.11 81.535 31.11 112.644 0 c 31.11 -31.096 31.11 -81.534 0 -112.644 L 493.938 461.401 c -7.998 -7.998 -20.965 -7.998 -28.963 0 s -7.998 20.965 0 28.963 z m 104.582 -256.875 l -162.714 161.69 c -4.836 4.836 -11.89 6.6 -18.381 4.628 l -47.119 -14.352 c -7.402 -2.251 -9.731 -11.566 -4.261 -17.039 l 195.641 -195.641 c 7.998 -7.998 7.998 -20.965 0 -28.963 s -20.965 -7.998 -28.963 0 L 308.115 339.457 c -27.327 27.344 -15.68 73.937 21.302 85.183 l 47.126 14.354 c 20.97 6.369 43.734 0.676 59.217 -14.807 l 162.668 -161.644 c 8.023 -7.973 8.064 -20.94 0.091 -28.963 s -20.94 -8.064 -28.963 -0.091 z" stroke-linecap="round"/>
</g>
		<g transform="matrix(0.7813 0 0 0.7813 -175.4887 63.0058)">
<path style="stroke: none; stroke-width: 1; stroke-dasharray: none; stroke-linecap: butt; stroke-dashoffset: 0; stroke-linejoin: miter; stroke-miterlimit: 4; is-custom-font: none; font-file-url: none; fill: rgb(29,192,113); fill-rule: nonzero; opacity: 1;" transform=" translate(-287.3675, -592.6405)" d="M 344.386 590.34 c 14.346 -14.346 14.346 -37.608 0 -51.953 l -2.765 -2.765 c -14.346 -14.346 -37.608 -14.346 -51.953 0 l -59.32 59.32 c -14.346 14.346 -14.346 37.608 0 51.953 l 2.765 2.765 c 14.346 14.346 37.608 14.346 51.953 0 l 59.32 -59.32 z m 28.964 28.963 l -59.32 59.32 c -30.342 30.342 -79.538 30.342 -109.88 0 l -2.765 -2.765 c -30.342 -30.342 -30.342 -79.538 0 -109.88 l 59.32 -59.32 c 30.342 -30.342 79.538 -30.342 109.88 0 l 2.765 2.765 c 30.342 30.342 30.342 79.538 0 109.88 z" stroke-linecap="round"/>
</g>
		<g transform="matrix(0.7813 0 0 0.7813 -109.8442 128.6511)">
<path style="stroke: none; stroke-width: 1; stroke-dasharray: none; stroke-linecap: butt; stroke-dashoffset: 0; stroke-linejoin: miter; stroke-miterlimit: 4; is-custom-font: none; font-file-url: none; fill: rgb(29,192,113); fill-rule: nonzero; opacity: 1;" transform=" translate(-371.3925, -676.6665)" d="M 428.412 622.412 l -2.765 -2.765 c -14.346 -14.346 -37.608 -14.346 -51.953 0 l -59.32 59.32 c -14.346 14.346 -14.346 37.608 0 51.953 l 2.765 2.765 c 14.346 14.346 37.608 14.346 51.953 0 l 59.32 -59.32 c 14.346 -14.346 14.346 -37.608 0 -51.953 z m -30.357 140.237 c -30.342 30.342 -79.538 30.342 -109.88 0 l -2.765 -2.765 c -30.342 -30.342 -30.342 -79.538 0 -109.88 l 59.32 -59.32 c 30.342 -30.342 79.538 -30.342 109.88 0 l 2.765 2.765 c 30.342 30.342 30.342 79.538 0 109.88 l -59.32 59.32 z" stroke-linecap="round"/>
</g>
		<g transform="matrix(0.7813 0 0 0.7813 -44.2004 194.2949)">
<path style="stroke: none; stroke-width: 1; stroke-dasharray: none; stroke-linecap: butt; stroke-dashoffset: 0; stroke-linejoin: miter; stroke-miterlimit: 4; is-custom-font: none; font-file-url: none; fill: rgb(29,192,113); fill-rule: nonzero; opacity: 1;" transform=" translate(-455.4165, -760.6905)" d="M 512.436 758.39 c 14.346 -14.346 14.346 -37.608 0 -51.953 l -2.765 -2.765 c -14.346 -14.346 -37.608 -14.346 -51.953 0 l -59.32 59.32 c -14.346 14.346 -14.346 37.608 0 51.953 l 2.765 2.765 c 14.346 14.346 37.608 14.346 51.953 0 l 59.32 -59.32 z m 28.963 28.963 l -59.32 59.32 c -30.342 30.342 -79.538 30.342 -109.88 0 l -2.765 -2.765 c -30.342 -30.342 -30.342 -79.538 0 -109.88 l 59.32 -59.32 c 30.342 -30.342 79.538 -30.342 109.88 0 l 2.765 2.765 c 30.342 30.342 30.342 79.538 0 109.88 z" stroke-linecap="round"/>
</g>
		<g transform="matrix(0.7813 0 0 0.7813 21.4433 259.9394)">
<path style="stroke: none; stroke-width: 1; stroke-dasharray: none; stroke-linecap: butt; stroke-dashoffset: 0; stroke-linejoin: miter; stroke-miterlimit: 4; is-custom-font: none; font-file-url: none; fill: rgb(29,192,113); fill-rule: nonzero; opacity: 1;" transform=" translate(-539.4405, -844.7155)" d="M 596.46 790.462 l -2.765 -2.765 c -14.346 -14.346 -37.608 -14.346 -51.953 0 l -59.32 59.32 c -14.346 14.346 -14.346 37.608 0 51.953 l 2.765 2.765 c 14.346 14.346 37.608 14.346 51.953 0 l 59.32 -59.32 c 14.346 -14.346 14.346 -37.608 0 -51.953 z m -30.357 140.236 c -30.342 30.342 -79.538 30.342 -109.88 0 l -2.765 -2.765 c -30.342 -30.342 -30.342 -79.538 0 -109.88 l 59.32 -59.32 c 30.342 -30.342 79.538 -30.342 109.88 0 l 2.765 2.765 c 30.342 30.342 30.342 79.538 0 109.88 l -59.32 59.32 z" stroke-linecap="round"/>
</g>
</g>
</g>
</svg>