<svg xmlns="http://www.w3.org/2000/svg" xmlns:xlink="http://www.w3.org/1999/xlink" version="1.1" width="1000" height="1000" viewBox="0 0 1000 1000" xml:space="preserve">
<desc>Created with Fabric.js 3.5.0</desc>
<defs>
</defs>
<rect x="0" y="0" width="100%" height="100%" fill="rgba(255,255,255,0)"/>
<g transform="matrix(75.7576 0 0 91.8318 500.0001 485.7926)" id="593758">
<path style="stroke: none; stroke-width: 1; stroke-dasharray: none; stroke-linecap: butt; stroke-dashoffset: 0; stroke-linejoin: miter; stroke-miterlimit: 4; is-custom-font: none; font-file-url: none; fill: rgb(29,192,113); fill-rule: nonzero; opacity: 1;" vector-effect="non-scaling-stroke" transform=" translate(-7, -7)" d="m 11.8 10.6 l 0 -7.2035638 C 11.8 2.7367083 11.264337 2.2 10.603564 2.2 l -7.2071278 0 C 2.7367083 2.2 2.2 2.7356627 2.2 3.3964362 L 2.2 10.6 L 1 10.6 L 1 11.2 c 0 0.333681 0.2664272 0.6 0.5950819 0.6 l 10.8098361 0 C 12.726816 11.8 13 11.531371 13 11.2 l 0 -0.6 l -1.2 0 z m -8.4 -7.2 l 7.2 0 l 0 5.4 l -7.2 0 l 0 -5.4 z m 2.4 6.6 l 2.4 0 l 0 0.6 l -2.4 0 l 0 -0.6 z" stroke-linecap="round"/>
</g>
</svg>